<svg width="100" height="100" viewBox="0 0 100 100" fill="none" xmlns="http://www.w3.org/2000/svg">
<path d="M50.0001 62.125C54.4204 62.125 58.6596 60.3691 61.7852 57.2435C64.9108 54.1178 66.6668 49.8786 66.6668 45.4583C66.552 41.9383 65.564 38.5019 63.7918 35.4583C61.0001 29.75 58.1251 23.875 65.3335 6.29168C65.784 5.43624 65.923 4.45075 65.7267 3.50405C65.5304 2.55736 65.011 1.70839 64.2575 1.10262C63.504 0.496843 62.5632 0.171967 61.5965 0.183654C60.6297 0.195341 59.6971 0.542864 58.9585 1.16668C51.8751 6.45834 30.2085 22.5417 33.3335 45.8333C33.6258 50.1218 35.4863 54.1527 38.5601 57.1573C41.634 60.162 45.7061 61.9303 50.0001 62.125Z" fill="white"/>
<path d="M93.75 45.4583H77.0833C76.0202 45.4564 74.9966 45.8609 74.222 46.589C73.4474 47.3172 72.9804 48.3138 72.9167 49.375C72.9167 55.4529 70.5022 61.2818 66.2045 65.5795C61.9068 69.8772 56.0779 72.2917 50 72.2917C43.9221 72.2917 38.0932 69.8772 33.7955 65.5795C29.4978 61.2818 27.0833 55.4529 27.0833 49.375C27.0195 48.3138 26.5526 47.3172 25.778 46.589C25.0034 45.8609 23.9798 45.4564 22.9167 45.4583H6.25C4.5924 45.4583 3.00268 46.1168 1.83058 47.2889C0.65848 48.461 0 50.0507 0 51.7083L0 93.375C0 95.0326 0.65848 96.6223 1.83058 97.7944C3.00268 98.9665 4.5924 99.625 6.25 99.625H93.75C95.4076 99.625 96.9973 98.9665 98.1694 97.7944C99.3415 96.6223 100 95.0326 100 93.375V51.7083C100 50.0507 99.3415 48.461 98.1694 47.2889C96.9973 46.1168 95.4076 45.4583 93.75 45.4583ZM6.25 64.2083C6.25 63.1032 6.68899 62.0434 7.47039 61.262C8.25179 60.4806 9.3116 60.0417 10.4167 60.0417C11.5217 60.0417 12.5815 60.4806 13.3629 61.262C14.1443 62.0434 14.5833 63.1032 14.5833 64.2083C14.5833 65.3134 14.1443 66.3732 13.3629 67.1546C12.5815 67.936 11.5217 68.375 10.4167 68.375C9.3116 68.375 8.25179 67.936 7.47039 67.1546C6.68899 66.3732 6.25 65.3134 6.25 64.2083ZM14.5833 93.375C13.4783 93.375 12.4185 92.936 11.6371 92.1546C10.8557 91.3732 10.4167 90.3134 10.4167 89.2083C10.4167 88.1033 10.8557 87.0434 11.6371 86.262C12.4185 85.4806 13.4783 85.0417 14.5833 85.0417C15.6884 85.0417 16.7482 85.4806 17.5296 86.262C18.311 87.0434 18.75 88.1033 18.75 89.2083C18.75 90.3134 18.311 91.3732 17.5296 92.1546C16.7482 92.936 15.6884 93.375 14.5833 93.375ZM29.1667 78.75C28.0616 78.75 27.0018 78.311 26.2204 77.5296C25.439 76.7482 25 75.6884 25 74.5833C25 73.4782 25.439 72.4184 26.2204 71.637C27.0018 70.8556 28.0616 70.4167 29.1667 70.4167C30.2717 70.4167 31.3315 70.8556 32.1129 71.637C32.8943 72.4184 33.3333 73.4782 33.3333 74.5833C33.3333 75.6884 32.8943 76.7482 32.1129 77.5296C31.3315 78.311 30.2717 78.75 29.1667 78.75ZM37.5 93.375C36.3949 93.375 35.3351 92.936 34.5537 92.1546C33.7723 91.3732 33.3333 90.3134 33.3333 89.2083C33.3333 88.1033 33.7723 87.0434 34.5537 86.262C35.3351 85.4806 36.3949 85.0417 37.5 85.0417C38.6051 85.0417 39.6649 85.4806 40.4463 86.262C41.2277 87.0434 41.6667 88.1033 41.6667 89.2083C41.6667 90.3134 41.2277 91.3732 40.4463 92.1546C39.6649 92.936 38.6051 93.375 37.5 93.375ZM60.4167 93.375C59.3116 93.375 58.2518 92.936 57.4704 92.1546C56.689 91.3732 56.25 90.3134 56.25 89.2083C56.25 88.1033 56.689 87.0434 57.4704 86.262C58.2518 85.4806 59.3116 85.0417 60.4167 85.0417C61.5217 85.0417 62.5815 85.4806 63.3629 86.262C64.1443 87.0434 64.5833 88.1033 64.5833 89.2083C64.5833 90.3134 64.1443 91.3732 63.3629 92.1546C62.5815 92.936 61.5217 93.375 60.4167 93.375ZM70.8333 78.75C69.7283 78.75 68.6685 78.311 67.887 77.5296C67.1056 76.7482 66.6667 75.6884 66.6667 74.5833C66.6667 73.4782 67.1056 72.4184 67.887 71.637C68.6685 70.8556 69.7283 70.4167 70.8333 70.4167C71.9384 70.4167 72.9982 70.8556 73.7796 71.637C74.561 72.4184 75 73.4782 75 74.5833C75 75.6884 74.561 76.7482 73.7796 77.5296C72.9982 78.311 71.9384 78.75 70.8333 78.75ZM83.3333 93.375C82.2283 93.375 81.1685 92.936 80.387 92.1546C79.6056 91.3732 79.1667 90.3134 79.1667 89.2083C79.1667 88.1033 79.6056 87.0434 80.387 86.262C81.1685 85.4806 82.2283 85.0417 83.3333 85.0417C84.4384 85.0417 85.4982 85.4806 86.2796 86.262C87.061 87.0434 87.5 88.1033 87.5 89.2083C87.5 90.3134 87.061 91.3732 86.2796 92.1546C85.4982 92.936 84.4384 93.375 83.3333 93.375ZM89.5833 68.375C88.4783 68.375 87.4185 67.936 86.637 67.1546C85.8556 66.3732 85.4167 65.3134 85.4167 64.2083C85.4167 63.1032 85.8556 62.0434 86.637 61.262C87.4185 60.4806 88.4783 60.0417 89.5833 60.0417C90.6884 60.0417 91.7482 60.4806 92.5296 61.262C93.311 62.0434 93.75 63.1032 93.75 64.2083C93.75 65.3134 93.311 66.3732 92.5296 67.1546C91.7482 67.936 90.6884 68.375 89.5833 68.375Z" fill="white"/>
</svg>
