<svg width="100" height="100" viewBox="0 0 100 100" fill="none" xmlns="http://www.w3.org/2000/svg">
<path d="M66.4145 77.0833C60.527 81.4041 54.6333 84.5562 49.9999 86.0958C35.4166 81.25 8.33325 60.4166 8.33325 37.5C8.33325 24.8437 18.5937 14.5833 31.2499 14.5833C38.9999 14.5833 45.8541 18.4312 49.9999 24.3208C52.1135 21.3112 54.9209 18.855 58.1846 17.16C61.4483 15.4651 65.0723 14.5812 68.7499 14.5833C81.4062 14.5833 91.6666 24.8437 91.6666 37.5C91.6666 41.1396 90.9833 44.725 89.777 48.2021" stroke="white" stroke-width="2" stroke-linecap="round" stroke-linejoin="round"/>
<path d="M56.25 60.4166H64.5833L70.8333 52.0833L77.0833 68.75L83.2542 60.4166H91.6667" stroke="white" stroke-width="2" stroke-linecap="round" stroke-linejoin="round"/>
</svg>
