<svg width="100" height="101" viewBox="0 0 100 101" fill="none" xmlns="http://www.w3.org/2000/svg">
<path fill-rule="evenodd" clip-rule="evenodd" d="M69.3167 79.5C68.3175 78.8586 67.2584 78.3158 66.1542 77.8792C58.8376 74.9708 59.6292 77.1708 63.3709 74.3042C74.2209 65.9875 72.7251 45.5708 58.4626 42.7875C58.0936 42.7133 57.7102 42.7846 57.3926 42.9865C57.075 43.1884 56.8478 43.5052 56.7584 43.8708C56.2167 46.4458 60.2501 44.6583 64.2417 49.7292C70.4376 57.6708 65.9917 77.4208 45.5334 72.725C29.7751 69.4792 31.8542 41.9958 53.2667 43.6167C53.4303 43.6331 53.5956 43.6171 53.753 43.5697C53.9104 43.5222 54.057 43.4442 54.1843 43.3401C54.3116 43.2361 54.4171 43.1079 54.4949 42.9631C54.5727 42.8182 54.6211 42.6594 54.6376 42.4958C54.654 42.3322 54.638 42.167 54.5906 42.0095C54.5431 41.8521 54.4651 41.7056 54.3611 41.5783C54.257 41.451 54.1288 41.3454 53.984 41.2677C53.8391 41.1899 53.6803 41.1414 53.5167 41.125C29.1501 38.0458 24.0334 68.65 41.0417 76.425C31.0626 80.5833 23.0376 88.4 24.4084 98.7542C24.3986 98.9241 24.4236 99.0943 24.4818 99.2542C24.5401 99.4141 24.6304 99.5605 24.7473 99.6843C24.8641 99.8081 25.005 99.9067 25.1613 99.9741C25.3176 100.042 25.4861 100.076 25.6563 100.076C25.8265 100.076 25.995 100.042 26.1513 99.9741C26.3076 99.9067 26.4485 99.8081 26.5653 99.6843C26.6822 99.5605 26.7725 99.4141 26.8308 99.2542C26.8891 99.0943 26.9141 98.9241 26.9042 98.7542C27.2841 95.6993 28.5239 92.8151 30.4792 90.4375C33.3834 86.6958 36.7667 83.3542 40.5417 80.5C44.9501 77.8375 44.7001 78.0875 44.7001 77.6708C46.239 77.9792 47.7917 78.1736 49.3584 78.2542C47.9746 83.6928 47.7756 89.3653 48.7751 94.8875C48.7751 95.7208 48.7751 97.6708 50.6084 97.2125C52.4334 96.7542 51.8959 95.8 51.8959 94.5125C51.8959 94.0542 52.8917 87.4 52.9751 86.1958C52.967 83.4106 52.7441 80.6301 52.3084 77.8792C53.9612 77.7847 55.5834 77.5069 57.1751 77.0458C57.5501 77.9208 58.5917 77.7958 63.2876 80.6667C69.0751 85.0432 73.3495 91.1197 75.5126 98.0458C75.6099 98.3942 75.8361 98.6924 76.1452 98.8802C76.4543 99.0679 76.8233 99.1311 77.1773 99.0569C77.5313 98.9828 77.8438 98.7767 78.0515 98.4807C78.2592 98.1846 78.3466 97.8206 78.2959 97.4625C77.7396 90.54 74.5209 84.0986 69.3167 79.5Z" fill="white"/>
<path fill-rule="evenodd" clip-rule="evenodd" d="M48.7751 55.0125C45.5185 56.969 41.7632 57.9361 37.9667 57.7958C37.7968 57.786 37.6266 57.811 37.4667 57.8693C37.3067 57.9275 37.1604 58.0179 37.0366 58.1347C36.9128 58.2516 36.8142 58.3925 36.7468 58.5488C36.6794 58.7051 36.6446 58.8735 36.6446 59.0437C36.6446 59.214 36.6794 59.3824 36.7468 59.5387C36.8142 59.695 36.9128 59.8359 37.0366 59.9528C37.1604 60.0696 37.3067 60.1599 37.4667 60.2182C37.6266 60.2765 37.7968 60.3015 37.9667 60.2917C42.3714 61.4122 47.024 61.0309 51.1876 59.2083C53.2737 57.7861 55.4501 56.5111 57.7167 55.3833C61.0417 58.6292 63.0376 61.7042 64.5751 60C64.8316 59.7228 64.9741 59.359 64.9741 58.9812C64.9741 58.6035 64.8316 58.2397 64.5751 57.9625C60.9584 54.2625 60.4167 49.6458 56.5917 50.7708C53.889 52.0042 51.2834 53.4181 48.7751 55.0125ZM48.3584 32.2667C48.9834 33.6 49.6501 35.5083 51.1459 34.5958C51.3822 34.4872 51.5803 34.3098 51.7141 34.0867C51.8479 33.8637 51.9113 33.6055 51.8959 33.3458C51.8959 32.8875 47.2376 20.25 46.6959 18.7958C57.1334 18.4208 56.4667 19.4625 54.0959 1.16667C54.0643 0.839626 53.9092 0.536923 53.6623 0.320177C53.4154 0.103432 53.0951 -0.0110624 52.7667 6.75634e-07C50.5209 6.75634e-07 52.1834 3.1625 51.2251 13.8875C50.1876 13.8875 43.7459 14.0958 42.9126 14.2208C42.5152 14.2224 42.1254 14.3294 41.7829 14.5309C41.4404 14.7324 41.1575 15.0211 40.963 15.3677C40.7686 15.7142 40.6696 16.1061 40.6761 16.5034C40.6826 16.9007 40.7944 17.2892 41.0001 17.6292C42.6251 20.25 46.6542 28.6917 48.3584 32.2667ZM26.9042 48.2333C27.2376 46.7333 25.6959 46.4 24.3251 45.6125C21.2917 43.9917 15.1792 40.5833 11.0626 38.4208C15.8042 33.9708 17.7167 32.225 16.9667 30.3542C13.2987 25.8072 9.11199 21.7044 4.49173 18.1292C4.38476 17.9845 4.24781 17.8646 4.09024 17.7777C3.93267 17.6908 3.7582 17.6389 3.57875 17.6256C3.39929 17.6124 3.21909 17.638 3.05045 17.7008C2.88182 17.7636 2.72872 17.862 2.60164 17.9894C2.47455 18.1168 2.37646 18.2701 2.31408 18.4389C2.2517 18.6077 2.2265 18.788 2.2402 18.9674C2.2539 19.1468 2.30617 19.3212 2.39344 19.4785C2.48072 19.6359 2.60094 19.7725 2.7459 19.8792C4.66256 22.0792 9.90006 28.1917 12.0209 30.9375C11.0209 31.7708 5.74173 36.8417 5.2834 37.4208C4.98856 37.6911 4.76958 38.0337 4.64821 38.4148C4.52685 38.7959 4.50732 39.2021 4.59158 39.5931C4.67584 39.984 4.86095 40.3461 5.12851 40.6434C5.39607 40.9406 5.73676 41.1627 6.11673 41.2875C9.6084 42.4958 19.9209 47.0708 25.0334 49.2292C25.2214 49.2924 25.4204 49.3166 25.6181 49.3002C25.8159 49.2839 26.0082 49.2274 26.1833 49.1342C26.3584 49.0409 26.5127 48.913 26.6366 48.7581C26.7606 48.6032 26.8517 48.4246 26.9042 48.2333ZM95.4292 17.5875C83.6209 28.15 82.2876 29.3958 82.9542 31.6417C84.6737 33.9291 86.6243 36.0332 88.7751 37.9208C84.6167 40.0875 78.5459 43.45 75.5126 45.1167C70.9792 47.5667 74.2626 48.9417 75.0959 48.5667C76.8834 47.8583 89.9376 42.0792 93.7209 40.7083C94.0586 40.5423 94.3545 40.3022 94.5865 40.0059C94.8185 39.7095 94.9806 39.3646 95.0607 38.9969C95.1408 38.6292 95.1369 38.2482 95.0492 37.8822C94.9615 37.5163 94.7923 37.1748 94.5542 36.8833C93.8876 36.1333 88.7334 31.1875 87.6959 30.4375C89.8167 27.4833 95.0542 21.5792 96.9667 19.375C97.1523 19.3017 97.3177 19.1851 97.449 19.0348C97.5803 18.8846 97.6737 18.7051 97.7214 18.5113C97.7691 18.3176 97.7698 18.1152 97.7233 17.9212C97.6768 17.7271 97.5846 17.547 97.4543 17.3959C97.3239 17.2448 97.1594 17.1271 96.9742 17.0527C96.7891 16.9782 96.5889 16.9491 96.3902 16.9679C96.1916 16.9866 96.0003 17.0527 95.8324 17.1605C95.6645 17.2683 95.529 17.4147 95.4292 17.5875Z" fill="white"/>
</svg>
