<svg width="100" height="100" viewBox="0 0 100 100" fill="none" xmlns="http://www.w3.org/2000/svg">
<path d="M61.9375 56.0125H69.9417M61.9375 36H69.9417M61.9375 15.9833H69.9417" stroke="#191919" stroke-linecap="round" stroke-linejoin="round"/>
<path d="M53.9707 66.1V12.1417C53.9707 10.0271 53.1307 7.99919 51.6355 6.50398C50.1403 5.00876 48.1124 4.16876 45.9978 4.16876C43.8833 4.16876 41.8553 5.00876 40.3601 6.50398C38.8649 7.99919 38.0249 10.0271 38.0249 12.1417V66.1C34.9874 67.8549 32.6138 70.563 31.2721 73.8042C29.9304 77.0455 29.6955 80.6388 30.604 84.0271C31.5124 87.4155 33.5134 90.4094 36.2966 92.5447C39.0799 94.68 42.4898 95.8374 45.9978 95.8374C49.5058 95.8374 52.9158 94.68 55.699 92.5447C58.4822 90.4094 60.4832 87.4155 61.3916 84.0271C62.3001 80.6388 62.0652 77.0455 60.7235 73.8042C59.3818 70.563 57.0082 67.8549 53.9707 66.1Z" fill="#FF808C"/>
<path d="M45.9958 83.8667C47.0522 83.8667 48.0654 83.447 48.8124 82.7C49.5594 81.953 49.9791 80.9398 49.9791 79.8834C49.9791 78.8269 49.5594 77.8137 48.8124 77.0667C48.0654 76.3197 47.0522 75.9 45.9958 75.9C44.9393 75.9 43.9262 76.3197 43.1791 77.0667C42.4321 77.8137 42.0125 78.8269 42.0125 79.8834C42.0125 80.9398 42.4321 81.953 43.1791 82.7C43.9262 83.447 44.9393 83.8667 45.9958 83.8667Z" fill="#FFEF5E" stroke="#191919" stroke-linecap="round" stroke-linejoin="round"/>
<path d="M45.9999 4.17085C44.953 4.1692 43.9161 4.37411 42.9486 4.77384C41.9811 5.17357 41.1019 5.76026 40.3615 6.50031C39.621 7.24035 39.0339 8.11921 38.6336 9.08654C38.2334 10.0539 38.028 11.0907 38.0291 12.1375V32.9625H53.9666V12.1417C53.9682 11.0955 53.7636 10.0593 53.3644 9.09232C52.9651 8.12533 52.3792 7.24653 51.64 6.50621C50.9009 5.76588 50.023 5.17856 49.0566 4.77783C48.0903 4.37711 47.0544 4.17085 46.0082 4.17085H45.9999Z" fill="white"/>
<path d="M45.9999 75.8959V16.125M53.9707 66.1V12.1417C53.9707 10.0271 53.1307 7.99919 51.6355 6.50398C50.1403 5.00876 48.1124 4.16876 45.9978 4.16876C43.8833 4.16876 41.8553 5.00876 40.3601 6.50398C38.8649 7.99919 38.0249 10.0271 38.0249 12.1417V66.1C34.9874 67.8549 32.6138 70.563 31.2721 73.8042C29.9304 77.0455 29.6955 80.6388 30.604 84.0271C31.5124 87.4155 33.5134 90.4094 36.2966 92.5447C39.0799 94.68 42.4898 95.8374 45.9978 95.8374C49.5058 95.8374 52.9158 94.68 55.699 92.5447C58.4822 90.4094 60.4832 87.4155 61.3916 84.0271C62.3001 80.6388 62.0652 77.0455 60.7235 73.8042C59.3818 70.563 57.0082 67.8549 53.9707 66.1Z" stroke="#191919" stroke-linecap="round" stroke-linejoin="round"/>
</svg>
